<?xml version="1.0" encoding="UTF-8" standalone="no"?>
<!-- Created with Inkscape (http://www.inkscape.org/) -->

<svg
   width="2105"
   height="512"
   viewBox="0 0 2105 512"
   version="1.1"
   id="svg1"
   inkscape:version="1.4.2 (f4327f4, 2025-05-13)"
   sodipodi:docname="brickstatlogopath.svg"
   xmlns:inkscape="http://www.inkscape.org/namespaces/inkscape"
   xmlns:sodipodi="http://sodipodi.sourceforge.net/DTD/sodipodi-0.dtd"
   xmlns="http://www.w3.org/2000/svg"
   xmlns:svg="http://www.w3.org/2000/svg">
  <sodipodi:namedview
     id="namedview1"
     pagecolor="#505050"
     bordercolor="#eeeeee"
     borderopacity="1"
     inkscape:showpageshadow="0"
     inkscape:pageopacity="0"
     inkscape:pagecheckerboard="0"
     inkscape:deskcolor="#505050"
     inkscape:document-units="px"
     showguides="true"
     inkscape:zoom="1.4142136"
     inkscape:cx="450.42701"
     inkscape:cy="323.14779"
     inkscape:window-width="1918"
     inkscape:window-height="2054"
     inkscape:window-x="3840"
     inkscape:window-y="0"
     inkscape:window-maximized="0"
     inkscape:current-layer="layer1">
    <sodipodi:guide
       position="170.66667,556.91228"
       orientation="-1,0"
       id="guide1"
       inkscape:locked="false"
       inkscape:label=""
       inkscape:color="rgb(0,134,229)" />
    <sodipodi:guide
       position="341.33333,501.33333"
       orientation="-1,0"
       id="guide2"
       inkscape:locked="false"
       inkscape:label=""
       inkscape:color="rgb(0,134,229)" />
    <sodipodi:guide
       position="268.91228,256"
       orientation="0,1"
       id="guide3"
       inkscape:locked="false"
       inkscape:label=""
       inkscape:color="rgb(0,134,229)" />
    <sodipodi:guide
       position="256,533.33333"
       orientation="-1,0"
       id="guide4"
       inkscape:locked="false"
       inkscape:label=""
       inkscape:color="rgb(0,134,229)" />
    <sodipodi:guide
       position="102.4,512"
       orientation="-1,0"
       id="guide5"
       inkscape:locked="false"
       inkscape:label=""
       inkscape:color="rgb(0,134,229)" />
    <sodipodi:guide
       position="409.6,513.12281"
       orientation="-1,0"
       id="guide6"
       inkscape:locked="false"
       inkscape:label=""
       inkscape:color="rgb(0,134,229)" />
    <sodipodi:guide
       position="143.7193,409.6"
       orientation="0,1"
       id="guide8"
       inkscape:locked="false"
       inkscape:label=""
       inkscape:color="rgb(0,134,229)" />
    <sodipodi:guide
       position="152.14035,102.4"
       orientation="0,1"
       id="guide9"
       inkscape:locked="false"
       inkscape:label=""
       inkscape:color="rgb(0,134,229)" />
    <sodipodi:guide
       position="307.2,390.77461"
       orientation="-1,0"
       id="guide7"
       inkscape:locked="false"
       inkscape:label=""
       inkscape:color="rgb(0,134,229)" />
    <sodipodi:guide
       position="443.73333,288.73103"
       orientation="-1,0"
       id="guide10"
       inkscape:locked="false"
       inkscape:label=""
       inkscape:color="rgb(0,134,229)" />
    <sodipodi:guide
       position="477.86666,426"
       orientation="-1,0"
       id="guide11"
       inkscape:locked="false"
       inkscape:label=""
       inkscape:color="rgb(0,134,229)" />
    <sodipodi:guide
       position="68.26667,344.59247"
       orientation="-1,0"
       id="guide12"
       inkscape:locked="false"
       inkscape:label=""
       inkscape:color="rgb(0,134,229)" />
    <sodipodi:guide
       position="2110.8907,319.25"
       orientation="-1,0"
       id="guide13"
       inkscape:locked="false"
       inkscape:label=""
       inkscape:color="rgb(0,134,229)" />
  </sodipodi:namedview>
  <defs
     id="defs1" />
  <g
     inkscape:label="Layer 1"
     inkscape:groupmode="layer"
     id="layer1">
    <g
       id="g6"
       transform="matrix(2.048,0,0,2.048,-242.09516,-307.28338)">
      <rect
         style="fill:#4b9f4a;fill-opacity:1;stroke-width:0;stroke-dasharray:none"
         id="rect3"
         width="30"
         height="10.625"
         x="-63.263161"
         y="-129.64255"
         transform="translate(291.47368,329.37076)" />
      <rect
         style="fill:#4b9f4a;fill-opacity:1;stroke-width:0;stroke-dasharray:none"
         id="rect2"
         width="50"
         height="140"
         x="218.21053"
         y="210.35321" />
    </g>
    <g
       id="g8"
       transform="matrix(2.048,0,0,2.048,-378.62845,-226.00338)">
      <rect
         style="fill:#4b9f4a;fill-opacity:1;stroke-width:0.652008"
         id="rect7"
         width="30"
         height="10.625"
         x="-63.263161"
         y="-129.64255"
         transform="translate(291.47368,329.37076)" />
      <rect
         style="fill:#4b9f4a;fill-opacity:1;stroke-width:0.378624"
         id="rect8"
         width="50"
         height="100"
         x="218.21053"
         y="210.35321" />
    </g>
    <g
       id="g10"
       transform="matrix(2.048,0,0,2.048,-105.56183,-144.08337)">
      <rect
         style="fill:#4b9f4a;fill-opacity:1;stroke-width:0.652008"
         id="rect9"
         width="30"
         height="10.625"
         x="-63.263161"
         y="-129.64255"
         transform="translate(291.47368,329.37076)" />
      <rect
         style="fill:#4b9f4a;fill-opacity:1;stroke-width:0.293281"
         id="rect10"
         width="50"
         height="60"
         x="218.21053"
         y="210.35321" />
    </g>
    <path
       d="M 479.30945,409.55331 V 102.4467 h 105.73537 q 29.6801,0 51.32184,9.89337 21.84785,9.68726 33.59623,27.8251 11.74837,17.93173 11.74837,42.66514 0,17.72562 -6.59558,31.329 -6.38947,13.60338 -17.93173,22.87841 -11.54226,9.27503 -27.00065,14.22172 v 0.41222 q 17.3134,2.88557 31.74122,11.95449 14.42783,8.8628 23.29064,24.32119 8.86281,15.25228 8.86281,36.89402 0,25.55786 -11.95449,44.72626 -11.74837,18.96229 -35.03901,29.47399 -23.29063,10.5117 -57.50519,10.5117 z m 27.8251,-25.14564 h 82.44473 q 36.27568,0 56.06241,-15.45838 19.99285,-15.45839 19.99285,-43.07737 0,-18.75618 -9.48115,-32.15345 -9.27503,-13.39727 -26.1762,-20.61118 -16.90117,-7.21391 -38.95513,-7.21391 h -83.88751 z m 0,-143.24771 h 82.23861 q 19.78674,0 34.21457,-7.21392 14.63394,-7.42002 22.46618,-20.19895 8.03837,-12.77894 8.03837,-29.47399 0,-26.38232 -18.55007,-41.42848 -18.34395,-15.25227 -49.46683,-15.25227 H 507.13455 Z M 738.39201,409.55331 V 191.89923 h 25.35176 v 36.27568 h 0.61833 q 6.59558,-17.72561 21.64174,-28.23732 15.04617,-10.71781 36.4818,-10.71781 3.91612,0 6.80169,0.41222 2.88556,0.20612 4.74057,0.41223 v 26.58842 q -1.6489,-0.41222 -5.97725,-1.03056 -4.12223,-0.61833 -9.89336,-0.61833 -14.63394,0 -26.79454,6.80169 -12.1606,6.59558 -19.37451,19.58062 -7.21391,12.98504 -7.21391,32.15344 v 136.0338 z m 127.58322,0 V 191.89923 h 26.38232 v 217.65408 z m 13.19116,-264.85368 q -7.83225,0 -13.60338,-5.56502 -5.56502,-5.77113 -5.56502,-13.60338 0,-8.03836 5.56502,-13.60338 5.77113,-5.56502 13.60338,-5.56502 8.03836,0 13.60338,5.56502 5.56502,5.56502 5.56502,13.60338 0,7.83225 -5.56502,13.60338 -5.56502,5.56502 -13.60338,5.56502 z m 153.34721,269.18203 q -29.2679,0 -51.7341,-14.42782 -22.46619,-14.63394 -35.03901,-39.9857 -12.36671,-25.55786 -12.36671,-58.53575 0,-32.9779 12.36671,-58.53576 12.57282,-25.76398 35.03901,-40.19181 22.4662,-14.63393 51.7341,-14.63393 17.9317,0 33.184,5.56501 15.4584,5.35891 27.2067,15.45839 11.9545,10.09948 19.5807,23.90897 7.6261,13.80949 10.3055,30.29844 h -27.0006 q -2.2672,-11.33615 -7.6261,-20.61118 -5.359,-9.48115 -13.3973,-16.07672 -8.0384,-6.80169 -18.7562,-10.51171 -10.5117,-3.71001 -23.4967,-3.71001 -21.8479,0 -38.33683,11.13004 -16.28284,11.13004 -25.14564,31.32899 -8.86281,19.99285 -8.86281,46.58128 0,26.58842 8.86281,46.58127 8.8628,19.99284 25.14564,31.12288 16.28283,10.92393 38.33683,10.92393 12.985,0 23.2906,-3.5039 10.5117,-3.5039 18.344,-10.30559 7.8322,-6.80169 13.1911,-16.07673 5.3589,-9.48114 8.0384,-21.0234 h 27.4128 q -2.6794,16.28283 -10.3055,30.09232 -7.6262,13.60338 -19.5807,23.90898 -11.9545,10.09947 -27.2067,15.66449 -15.2523,5.56502 -33.184,5.56502 z m 154.1716,-87.39141 v -33.184 h 3.0917 l 103.8803,-101.40702 h 34.8329 l -101.2009,98.93368 -2.6794,0.41222 z m -24.1151,83.06306 V 102.4467 h 26.3823 v 307.10661 z m 140.7744,0 -92.9564,-113.56761 18.9622,-18.13784 107.5904,131.70545 z m 159.9428,4.74058 q -32.9779,0 -57.2991,-11.54227 -24.3212,-11.74837 -37.9246,-32.97789 -13.3972,-21.43563 -14.0156,-50.29128 h 28.4434 q 0.6184,21.22952 10.3056,36.89402 9.6873,15.45838 27.619,23.90897 18.1379,8.45058 42.8713,8.45058 23.7028,0 41.4285,-7.42002 17.7256,-7.62614 27.4128,-21.22952 9.8934,-13.60338 9.8934,-31.74122 0,-14.01561 -6.3895,-24.52731 -6.3894,-10.5117 -20.405,-18.55006 -13.8095,-8.03836 -37.1002,-14.01561 l -34.4206,-9.27503 q -43.4896,-11.54226 -63.2764,-30.50455 -19.7867,-19.1684 -19.7867,-48.8485 0,-25.35175 12.5728,-44.31404 12.7789,-19.1684 35.4512,-29.88621 22.8785,-10.717817 52.9708,-10.717817 30.0923,0 52.3524,11.336147 22.4662,11.13004 35.039,31.53511 12.7789,20.40507 13.8095,47.81794 h -27.619 q -1.855,-29.6801 -21.8478,-47.1996 -19.7868,-17.72562 -52.5586,-17.72562 -21.0234,0 -37.5123,7.42003 -16.2828,7.42002 -25.764,20.61118 -9.275,12.98504 -9.275,29.88621 0,12.98505 6.3894,23.08452 6.5956,10.09948 20.4051,17.72562 13.8095,7.62614 35.8635,13.60338 l 34.8329,9.48114 q 21.6417,5.77114 37.3062,13.60338 15.8706,7.62614 26.1762,17.72562 10.5117,9.89337 15.6645,22.6723 5.1528,12.57282 5.1528,28.03121 0,25.55786 -13.3973,45.3446 -13.3972,19.58062 -37.5123,30.71066 -23.909,10.92393 -55.8563,10.92393 z m 234.9674,-222.39466 v 23.29064 h -109.0331 v -23.29064 z m -71.933,-59.3602 h 26.5884 v 228.16578 q 0,13.8095 5.9773,19.78674 6.1833,5.77113 20.405,5.77113 4.5345,0 9.4812,0 5.1528,0 9.4811,0 v 23.29063 q -4.9467,0 -10.5117,0 -5.565,0 -10.5117,0 -25.3517,0 -38.1307,-11.74837 -12.7789,-11.74837 -12.7789,-34.62678 z m 177.1878,280.31207 q -20.6112,0 -37.7185,-7.0078 -17.1072,-7.21391 -27.2067,-21.43563 -10.0995,-14.42782 -10.0995,-35.65734 0,-17.10728 6.3895,-28.23732 6.5956,-11.13004 18.3439,-17.93173 11.7484,-7.0078 27.8251,-10.92393 16.0767,-3.91612 35.2451,-6.38946 20.4051,-2.88557 33.184,-4.74057 12.779,-2.06112 18.7562,-5.97725 6.1834,-4.12223 6.1834,-12.57282 v -3.29779 q 0,-13.60338 -6.8017,-24.11508 -6.8017,-10.5117 -19.3745,-16.48895 -12.3667,-6.18335 -29.0618,-6.18335 -16.6951,0 -29.8862,5.97724 -12.9851,5.77113 -20.8173,16.07672 -7.6261,10.3056 -8.2445,23.08453 h -26.7945 q 0.6183,-19.78674 11.7484,-35.24512 11.13,-15.6645 30.0923,-24.73342 19.1684,-9.06892 43.9018,-9.06892 18.1378,0 33.184,5.15279 15.0462,5.1528 25.764,14.63394 10.9239,9.48115 16.695,22.46619 5.9773,12.77893 5.9773,28.44343 v 150.87385 h -26.3823 v -35.65734 h -0.6184 q -4.7405,10.09948 -13.8095,19.1684 -8.8628,8.86281 -22.8784,14.42783 -14.0156,5.3589 -33.5962,5.3589 z m 3.2978,-24.11508 q 21.8479,0 36.894,-8.24447 15.0462,-8.24447 22.8784,-22.6723 7.8323,-14.63394 7.8323,-33.39012 v -30.50455 q -2.8856,2.67946 -8.4506,4.74058 -5.565,1.855 -13.3973,3.71001 -7.8322,1.64889 -17.3134,3.09168 -9.4811,1.44278 -20.1989,2.88556 -18.1379,2.47334 -31.5351,7.42003 -13.3973,4.74057 -20.8173,12.98504 -7.2139,8.03836 -7.2139,21.22952 0,12.36671 6.5955,21.0234 6.5956,8.6567 18.1379,13.19116 11.5422,4.53446 26.5884,4.53446 z m 231.4635,-196.83679 v 23.29064 h -109.0331 v -23.29064 z m -71.933,-59.3602 h 26.5884 v 228.16578 q 0,13.8095 5.9773,19.78674 6.1833,5.77113 20.4051,5.77113 4.5344,0 9.4811,0 5.1528,0 9.4811,0 v 23.29063 q -4.9466,0 -10.5117,0 -5.565,0 -10.5117,0 -25.3517,0 -38.1306,-11.74837 -12.779,-11.74837 -12.779,-34.62678 z"
       id="text1"
       style="font-weight:300;font-size:422.117px;font-family:Inter;-inkscape-font-specification:'Inter Light';fill:#ffffff;stroke-width:1.00504"
       aria-label="BrickStat" />
  </g>
</svg>
